<svg id="Livello_1" data-name="Livello 1" xmlns="http://www.w3.org/2000/svg" viewBox="0 0 418.72 305.36" width="15px" height="13px"><defs><style>.cls-1{fill:#0061ff;}</style></defs><path class="cls-1" d="M413.76,42.48c-2,10.12-8.32,17.42-15.4,24.48Q287.6,177.5,177,288.24c-9.95,10-21.54,14.32-35.15,9.53a37.76,37.76,0,0,1-13.62-8.62q-56.58-56-112.71-112.54c-15.13-15.21-13.85-37,2.6-49.88,12.84-10,30.92-8.21,43.71,4.55q43.4,43.28,86.65,86.68c1.11,1.11,1.85,2.61,3.42,4.88a49.63,49.63,0,0,1,3.43-4.65Q256,117.53,356.6,16.9c9.73-9.74,21-13.82,34.48-9.6,11.77,3.69,18.79,12,21.87,23.78.23.89.54,1.75.81,2.62Z"/></svg>